<svg version="1.1" viewBox="0.0 0.0 837.0 517.0" fill="none" stroke="none" stroke-linecap="square" stroke-miterlimit="10" width="837" height="517" xmlns:xlink="http://www.w3.org/1999/xlink" xmlns="http://www.w3.org/2000/svg"><path fill="#ffffff" d="M0 0L837.0 0L837.0 517.0L0 517.0L0 0Z" fill-rule="nonzero"/><path stroke="#cccccc" stroke-width="1.0" stroke-linecap="butt" d="M75.5 461.5L811.5 461.5" fill-rule="nonzero"/><path stroke="#cccccc" stroke-width="1.0" stroke-linecap="butt" d="M75.5 383.5L811.5 383.5" fill-rule="nonzero"/><path stroke="#cccccc" stroke-width="1.0" stroke-linecap="butt" d="M75.5 306.5L811.5 306.5" fill-rule="nonzero"/><path stroke="#cccccc" stroke-width="1.0" stroke-linecap="butt" d="M75.5 229.5L811.5 229.5" fill-rule="nonzero"/><path stroke="#cccccc" stroke-width="1.0" stroke-linecap="butt" d="M75.5 151.5L811.5 151.5" fill-rule="nonzero"/><path stroke="#333333" stroke-width="1.0" stroke-linecap="butt" d="M75.5 74.5L811.5 74.5" fill-rule="nonzero"/><clipPath id="id_0"><path d="M75.85 74.583336L811.15 74.583336L811.15 461.15L75.85 461.15L75.85 74.583336Z" clip-rule="nonzero"/></clipPath><path stroke="#000000" stroke-width="2.0" stroke-linecap="butt" stroke-opacity="0.0" clip-path="url(#id_0)" d="M162.0 75.0L137.0 75.0L137.0 361.0C137.0 362.10458 137.89543 363.0 139.0 363.0L160.0 363.0C161.10457 363.0 162.0 362.10458 162.0 361.0Z" fill-rule="nonzero"/><path fill="#4285f4" clip-path="url(#id_0)" d="M162.0 75.0L137.0 75.0L137.0 361.0C137.0 362.10458 137.89543 363.0 139.0 363.0L160.0 363.0C161.10457 363.0 162.0 362.10458 162.0 361.0Z" fill-rule="nonzero"/><path stroke="#000000" stroke-width="2.0" stroke-linecap="butt" stroke-opacity="0.0" clip-path="url(#id_0)" d="M331.0 75.0L306.0 75.0L306.0 339.0C306.0 340.10458 306.89542 341.0 308.0 341.0L329.0 341.0C330.10458 341.0 331.0 340.10458 331.0 339.0Z" fill-rule="nonzero"/><path fill="#4285f4" clip-path="url(#id_0)" d="M331.0 75.0L306.0 75.0L306.0 339.0C306.0 340.10458 306.89542 341.0 308.0 341.0L329.0 341.0C330.10458 341.0 331.0 340.10458 331.0 339.0Z" fill-rule="nonzero"/><path stroke="#000000" stroke-width="2.0" stroke-linecap="butt" stroke-opacity="0.0" clip-path="url(#id_0)" d="M500.0 75.0L475.0 75.0L475.0 347.0C475.0 348.10458 475.89542 349.0 477.0 349.0L498.0 349.0C499.10458 349.0 500.0 348.10458 500.0 347.0Z" fill-rule="nonzero"/><path fill="#4285f4" clip-path="url(#id_0)" d="M500.0 75.0L475.0 75.0L475.0 347.0C475.0 348.10458 475.89542 349.0 477.0 349.0L498.0 349.0C499.10458 349.0 500.0 348.10458 500.0 347.0Z" fill-rule="nonzero"/><path stroke="#000000" stroke-width="2.0" stroke-linecap="butt" stroke-opacity="0.0" clip-path="url(#id_0)" d="M669.0 75.0L644.0 75.0L644.0 336.0C644.0 337.10458 644.89545 338.0 646.0 338.0L667.0 338.0C668.10455 338.0 669.0 337.10458 669.0 336.0Z" fill-rule="nonzero"/><path fill="#4285f4" clip-path="url(#id_0)" d="M669.0 75.0L644.0 75.0L644.0 336.0C644.0 337.10458 644.89545 338.0 646.0 338.0L667.0 338.0C668.10455 338.0 669.0 337.10458 669.0 336.0Z" fill-rule="nonzero"/><path stroke="#000000" stroke-width="2.0" stroke-linecap="butt" stroke-opacity="0.0" clip-path="url(#id_0)" d="M189.0 75.0L164.0 75.0L164.0 400.0C164.0 401.10458 164.89543 402.0 166.0 402.0L187.0 402.0C188.10457 402.0 189.0 401.10458 189.0 400.0Z" fill-rule="nonzero"/><path fill="#ea4335" clip-path="url(#id_0)" d="M189.0 75.0L164.0 75.0L164.0 400.0C164.0 401.10458 164.89543 402.0 166.0 402.0L187.0 402.0C188.10457 402.0 189.0 401.10458 189.0 400.0Z" fill-rule="nonzero"/><path stroke="#000000" stroke-width="2.0" stroke-linecap="butt" stroke-opacity="0.0" clip-path="url(#id_0)" d="M358.0 75.0L333.0 75.0L333.0 372.0C333.0 373.10458 333.89542 374.0 335.0 374.0L356.0 374.0C357.10458 374.0 358.0 373.10458 358.0 372.0Z" fill-rule="nonzero"/><path fill="#ea4335" clip-path="url(#id_0)" d="M358.0 75.0L333.0 75.0L333.0 372.0C333.0 373.10458 333.89542 374.0 335.0 374.0L356.0 374.0C357.10458 374.0 358.0 373.10458 358.0 372.0Z" fill-rule="nonzero"/><path stroke="#000000" stroke-width="2.0" stroke-linecap="butt" stroke-opacity="0.0" clip-path="url(#id_0)" d="M527.0 75.0L502.0 75.0L502.0 362.0C502.0 363.10458 502.89542 364.0 504.0 364.0L525.0 364.0C526.10455 364.0 527.0 363.10458 527.0 362.0Z" fill-rule="nonzero"/><path fill="#ea4335" clip-path="url(#id_0)" d="M527.0 75.0L502.0 75.0L502.0 362.0C502.0 363.10458 502.89542 364.0 504.0 364.0L525.0 364.0C526.10455 364.0 527.0 363.10458 527.0 362.0Z" fill-rule="nonzero"/><path stroke="#000000" stroke-width="2.0" stroke-linecap="butt" stroke-opacity="0.0" clip-path="url(#id_0)" d="M696.0 75.0L671.0 75.0L671.0 347.0C671.0 348.10458 671.89545 349.0 673.0 349.0L694.0 349.0C695.10455 349.0 696.0 348.10458 696.0 347.0Z" fill-rule="nonzero"/><path fill="#ea4335" clip-path="url(#id_0)" d="M696.0 75.0L671.0 75.0L671.0 347.0C671.0 348.10458 671.89545 349.0 673.0 349.0L694.0 349.0C695.10455 349.0 696.0 348.10458 696.0 347.0Z" fill-rule="nonzero"/><path stroke="#000000" stroke-width="2.0" stroke-linecap="butt" stroke-opacity="0.0" clip-path="url(#id_0)" d="M216.0 75.0L191.0 75.0L191.0 398.0C191.0 399.10458 191.89543 400.0 193.0 400.0L214.0 400.0C215.10457 400.0 216.0 399.10458 216.0 398.0Z" fill-rule="nonzero"/><path fill="#fbbc04" clip-path="url(#id_0)" d="M216.0 75.0L191.0 75.0L191.0 398.0C191.0 399.10458 191.89543 400.0 193.0 400.0L214.0 400.0C215.10457 400.0 216.0 399.10458 216.0 398.0Z" fill-rule="nonzero"/><path stroke="#000000" stroke-width="2.0" stroke-linecap="butt" stroke-opacity="0.0" clip-path="url(#id_0)" d="M385.0 75.0L360.0 75.0L360.0 371.0C360.0 372.10458 360.89542 373.0 362.0 373.0L383.0 373.0C384.10458 373.0 385.0 372.10458 385.0 371.0Z" fill-rule="nonzero"/><path fill="#fbbc04" clip-path="url(#id_0)" d="M385.0 75.0L360.0 75.0L360.0 371.0C360.0 372.10458 360.89542 373.0 362.0 373.0L383.0 373.0C384.10458 373.0 385.0 372.10458 385.0 371.0Z" fill-rule="nonzero"/><path stroke="#000000" stroke-width="2.0" stroke-linecap="butt" stroke-opacity="0.0" clip-path="url(#id_0)" d="M554.0 75.0L529.0 75.0L529.0 360.0C529.0 361.10458 529.89545 362.0 531.0 362.0L552.0 362.0C553.10455 362.0 554.0 361.10458 554.0 360.0Z" fill-rule="nonzero"/><path fill="#fbbc04" clip-path="url(#id_0)" d="M554.0 75.0L529.0 75.0L529.0 360.0C529.0 361.10458 529.89545 362.0 531.0 362.0L552.0 362.0C553.10455 362.0 554.0 361.10458 554.0 360.0Z" fill-rule="nonzero"/><path stroke="#000000" stroke-width="2.0" stroke-linecap="butt" stroke-opacity="0.0" clip-path="url(#id_0)" d="M723.0 75.0L698.0 75.0L698.0 345.0C698.0 346.10458 698.89545 347.0 700.0 347.0L721.0 347.0C722.10455 347.0 723.0 346.10458 723.0 345.0Z" fill-rule="nonzero"/><path fill="#fbbc04" clip-path="url(#id_0)" d="M723.0 75.0L698.0 75.0L698.0 345.0C698.0 346.10458 698.89545 347.0 700.0 347.0L721.0 347.0C722.10455 347.0 723.0 346.10458 723.0 345.0Z" fill-rule="nonzero"/><path stroke="#000000" stroke-width="2.0" stroke-linecap="butt" stroke-opacity="0.0" clip-path="url(#id_0)" d="M243.0 75.0L218.0 75.0L218.0 378.0C218.0 379.10458 218.89543 380.0 220.0 380.0L241.0 380.0C242.10457 380.0 243.0 379.10458 243.0 378.0Z" fill-rule="nonzero"/><path fill="#34a853" clip-path="url(#id_0)" d="M243.0 75.0L218.0 75.0L218.0 378.0C218.0 379.10458 218.89543 380.0 220.0 380.0L241.0 380.0C242.10457 380.0 243.0 379.10458 243.0 378.0Z" fill-rule="nonzero"/><path stroke="#000000" stroke-width="2.0" stroke-linecap="butt" stroke-opacity="0.0" clip-path="url(#id_0)" d="M412.0 75.0L387.0 75.0L387.0 352.0C387.0 353.10458 387.89542 354.0 389.0 354.0L410.0 354.0C411.10458 354.0 412.0 353.10458 412.0 352.0Z" fill-rule="nonzero"/><path fill="#34a853" clip-path="url(#id_0)" d="M412.0 75.0L387.0 75.0L387.0 352.0C387.0 353.10458 387.89542 354.0 389.0 354.0L410.0 354.0C411.10458 354.0 412.0 353.10458 412.0 352.0Z" fill-rule="nonzero"/><path stroke="#000000" stroke-width="2.0" stroke-linecap="butt" stroke-opacity="0.0" clip-path="url(#id_0)" d="M581.0 75.0L556.0 75.0L556.0 335.0C556.0 336.10458 556.89545 337.0 558.0 337.0L579.0 337.0C580.10455 337.0 581.0 336.10458 581.0 335.0Z" fill-rule="nonzero"/><path fill="#34a853" clip-path="url(#id_0)" d="M581.0 75.0L556.0 75.0L556.0 335.0C556.0 336.10458 556.89545 337.0 558.0 337.0L579.0 337.0C580.10455 337.0 581.0 336.10458 581.0 335.0Z" fill-rule="nonzero"/><path stroke="#000000" stroke-width="2.0" stroke-linecap="butt" stroke-opacity="0.0" clip-path="url(#id_0)" d="M750.0 75.0L725.0 75.0L725.0 322.0C725.0 323.10458 725.89545 324.0 727.0 324.0L748.0 324.0C749.10455 324.0 750.0 323.10458 750.0 322.0Z" fill-rule="nonzero"/><path fill="#34a853" clip-path="url(#id_0)" d="M750.0 75.0L725.0 75.0L725.0 322.0C725.0 323.10458 725.89545 324.0 727.0 324.0L748.0 324.0C749.10455 324.0 750.0 323.10458 750.0 322.0Z" fill-rule="nonzero"/><path fill="#000000" d="M26.428125 463.775L26.428125 462.19687L31.2875 462.19687L31.2875 463.775L26.428125 463.775ZM38.553123 467.65L36.975 467.65L36.975 457.57187Q36.396873 458.11874 35.475 458.66562Q34.553123 459.19687 33.803123 459.47812L33.803123 457.94687Q35.13125 457.32187 36.13125 456.43124Q37.13125 455.54062 37.5375 454.7125L38.553123 454.7125L38.553123 467.65ZM43.490623 467.65L43.490623 465.85312L45.2875 465.85312L45.2875 467.65L43.490623 467.65ZM55.9125 466.13437L55.9125 467.65L47.396873 467.65Q47.38125 467.07187 47.584373 466.55624Q47.9125 465.68124 48.615623 464.8375Q49.334373 463.99374 50.69375 462.88437Q52.7875 461.16562 53.521873 460.16562Q54.271873 459.15 54.271873 458.25937Q54.271873 457.30624 53.6 456.66562Q52.928123 456.025 51.85 456.025Q50.69375 456.025 50.00625 456.7125Q49.334373 457.4 49.31875 458.60312L47.69375 458.43124Q47.865623 456.61874 48.94375 455.66562Q50.0375 454.7125 51.88125 454.7125Q53.725 454.7125 54.803123 455.74374Q55.896873 456.775 55.896873 458.29062Q55.896873 459.05624 55.56875 459.80624Q55.25625 460.55624 54.521873 461.38437Q53.7875 462.2125 52.084373 463.65Q50.6625 464.85312 50.25625 465.275Q49.85 465.69687 49.6 466.13437L55.9125 466.13437ZM57.6 464.275L59.25625 464.13437Q59.44375 465.35312 60.115623 465.9625Q60.7875 466.57187 61.740623 466.57187Q62.88125 466.57187 63.6625 465.7125Q64.45937 464.85312 64.45937 463.41562Q64.45937 462.07187 63.69375 461.29062Q62.94375 460.50937 61.709373 460.50937Q60.94375 460.50937 60.31875 460.85312Q59.709373 461.19687 59.365623 461.75937L57.88125 461.55624L59.13125 454.94687L65.5375 454.94687L65.5375 456.44687L60.396873 456.44687L59.69375 459.91562Q60.865623 459.10312 62.13125 459.10312Q63.81875 459.10312 64.975 460.275Q66.14687 461.44687 66.14687 463.275Q66.14687 465.025 65.11562 466.30624Q63.88125 467.86874 61.740623 467.86874Q59.975 467.86874 58.865623 466.88437Q57.75625 465.9 57.6 464.275Z" fill-rule="nonzero"/><path fill="#000000" d="M26.428125 386.46167L26.428125 384.88354L31.2875 384.88354L31.2875 386.46167L26.428125 386.46167ZM38.553123 390.33667L36.975 390.33667L36.975 380.25854Q36.396873 380.80542 35.475 381.3523Q34.553123 381.88354 33.803123 382.1648L33.803123 380.63354Q35.13125 380.00854 36.13125 379.11792Q37.13125 378.2273 37.5375 377.39917L38.553123 377.39917L38.553123 390.33667ZM43.490623 390.33667L43.490623 388.5398L45.2875 388.5398L45.2875 390.33667L43.490623 390.33667ZM47.6 383.9773Q47.6 381.69604 48.06875 380.30542Q48.5375 378.9148 49.459373 378.1648Q50.396873 377.39917 51.803123 377.39917Q52.834373 377.39917 53.615623 377.82104Q54.396873 378.2273 54.896873 379.02417Q55.4125 379.80542 55.709373 380.94604Q56.00625 382.07104 56.00625 383.9773Q56.00625 386.24292 55.5375 387.64917Q55.06875 389.0398 54.13125 389.80542Q53.209373 390.55542 51.803123 390.55542Q49.928123 390.55542 48.865623 389.2273Q47.6 387.61792 47.6 383.9773ZM49.225 383.9773Q49.225 387.14917 49.959373 388.21167Q50.709373 389.25854 51.803123 389.25854Q52.88125 389.25854 53.63125 388.21167Q54.38125 387.14917 54.38125 383.9773Q54.38125 380.80542 53.63125 379.75854Q52.88125 378.71167 51.7875 378.71167Q50.69375 378.71167 50.0375 379.63354Q49.225 380.80542 49.225 383.9773ZM57.6 383.9773Q57.6 381.69604 58.06875 380.30542Q58.5375 378.9148 59.459373 378.1648Q60.396873 377.39917 61.803123 377.39917Q62.834373 377.39917 63.615623 377.82104Q64.39687 378.2273 64.89687 379.02417Q65.4125 379.80542 65.70937 380.94604Q66.00625 382.07104 66.00625 383.9773Q66.00625 386.24292 65.5375 387.64917Q65.06875 389.0398 64.13125 389.80542Q63.209373 390.55542 61.803123 390.55542Q59.928123 390.55542 58.865623 389.2273Q57.6 387.61792 57.6 383.9773ZM59.225 383.9773Q59.225 387.14917 59.959373 388.21167Q60.709373 389.25854 61.803123 389.25854Q62.88125 389.25854 63.63125 388.21167Q64.38125 387.14917 64.38125 383.9773Q64.38125 380.80542 63.63125 379.75854Q62.88125 378.71167 61.7875 378.71167Q60.69375 378.71167 60.0375 379.63354Q59.225 380.80542 59.225 383.9773Z" fill-rule="nonzero"/><path fill="#000000" d="M26.428125 309.14835L26.428125 307.57022L31.2875 307.57022L31.2875 309.14835L26.428125 309.14835ZM32.6 306.66397Q32.6 304.38272 33.06875 302.9921Q33.5375 301.60147 34.459373 300.85147Q35.396873 300.08585 36.803123 300.08585Q37.834373 300.08585 38.615623 300.50772Q39.396873 300.91397 39.896873 301.71085Q40.4125 302.4921 40.709373 303.63272Q41.00625 304.75772 41.00625 306.66397Q41.00625 308.9296 40.5375 310.33585Q40.06875 311.72647 39.13125 312.4921Q38.209373 313.2421 36.803123 313.2421Q34.928123 313.2421 33.865623 311.91397Q32.6 310.3046 32.6 306.66397ZM34.225 306.66397Q34.225 309.83585 34.959373 310.89835Q35.709373 311.94522 36.803123 311.94522Q37.88125 311.94522 38.63125 310.89835Q39.38125 309.83585 39.38125 306.66397Q39.38125 303.4921 38.63125 302.44522Q37.88125 301.39835 36.7875 301.39835Q35.69375 301.39835 35.0375 302.32022Q34.225 303.4921 34.225 306.66397ZM43.490623 313.02335L43.490623 311.22647L45.2875 311.22647L45.2875 313.02335L43.490623 313.02335ZM47.709373 301.82022L47.709373 300.3046L56.0375 300.3046L56.0375 301.53897Q54.81875 302.85147 53.6 305.02335Q52.396873 307.1796 51.740623 309.47647Q51.25625 311.10147 51.13125 313.02335L49.50625 313.02335Q49.5375 311.50772 50.1 309.35147Q50.678123 307.19522 51.740623 305.19522Q52.803123 303.19522 54.00625 301.82022L47.709373 301.82022ZM57.6 309.64835L59.25625 309.50772Q59.44375 310.72647 60.115623 311.33585Q60.7875 311.94522 61.740623 311.94522Q62.88125 311.94522 63.6625 311.08585Q64.45937 310.22647 64.45937 308.78897Q64.45937 307.44522 63.69375 306.66397Q62.94375 305.88272 61.709373 305.88272Q60.94375 305.88272 60.31875 306.22647Q59.709373 306.57022 59.365623 307.13272L57.88125 306.9296L59.13125 300.32022L65.5375 300.32022L65.5375 301.82022L60.396873 301.82022L59.69375 305.28897Q60.865623 304.47647 62.13125 304.47647Q63.81875 304.47647 64.975 305.64835Q66.14687 306.82022 66.14687 308.64835Q66.14687 310.39835 65.11562 311.6796Q63.88125 313.2421 61.740623 313.2421Q59.975 313.2421 58.865623 312.25772Q57.75625 311.27335 57.6 309.64835Z" fill-rule="nonzero"/><path fill="#000000" d="M26.428125 231.835L26.428125 230.25688L31.2875 230.25688L31.2875 231.835L26.428125 231.835ZM32.6 229.35063Q32.6 227.06938 33.06875 225.67876Q33.5375 224.28813 34.459373 223.53813Q35.396873 222.7725 36.803123 222.7725Q37.834373 222.7725 38.615623 223.19438Q39.396873 223.60063 39.896873 224.3975Q40.4125 225.17876 40.709373 226.31938Q41.00625 227.44438 41.00625 229.35063Q41.00625 231.61626 40.5375 233.0225Q40.06875 234.41313 39.13125 235.17876Q38.209373 235.92876 36.803123 235.92876Q34.928123 235.92876 33.865623 234.60063Q32.6 232.99126 32.6 229.35063ZM34.225 229.35063Q34.225 232.5225 34.959373 233.585Q35.709373 234.63188 36.803123 234.63188Q37.88125 234.63188 38.63125 233.585Q39.38125 232.5225 39.38125 229.35063Q39.38125 226.17876 38.63125 225.13188Q37.88125 224.085 36.7875 224.085Q35.69375 224.085 35.0375 225.00688Q34.225 226.17876 34.225 229.35063ZM43.490623 235.71L43.490623 233.91313L45.2875 233.91313L45.2875 235.71L43.490623 235.71ZM47.6 232.335L49.25625 232.19438Q49.44375 233.41313 50.115623 234.0225Q50.7875 234.63188 51.740623 234.63188Q52.88125 234.63188 53.6625 233.7725Q54.459373 232.91313 54.459373 231.47563Q54.459373 230.13188 53.69375 229.35063Q52.94375 228.56938 51.709373 228.56938Q50.94375 228.56938 50.31875 228.91313Q49.709373 229.25688 49.365623 229.81938L47.88125 229.61626L49.13125 223.00688L55.5375 223.00688L55.5375 224.50688L50.396873 224.50688L49.69375 227.97563Q50.865623 227.16313 52.13125 227.16313Q53.81875 227.16313 54.975 228.335Q56.146873 229.50688 56.146873 231.335Q56.146873 233.085 55.115623 234.36626Q53.88125 235.92876 51.740623 235.92876Q49.975 235.92876 48.865623 234.94438Q47.75625 233.96 47.6 232.335ZM57.6 229.35063Q57.6 227.06938 58.06875 225.67876Q58.5375 224.28813 59.459373 223.53813Q60.396873 222.7725 61.803123 222.7725Q62.834373 222.7725 63.615623 223.19438Q64.39687 223.60063 64.89687 224.3975Q65.4125 225.17876 65.70937 226.31938Q66.00625 227.44438 66.00625 229.35063Q66.00625 231.61626 65.5375 233.0225Q65.06875 234.41313 64.13125 235.17876Q63.209373 235.92876 61.803123 235.92876Q59.928123 235.92876 58.865623 234.60063Q57.6 232.99126 57.6 229.35063ZM59.225 229.35063Q59.225 232.5225 59.959373 233.585Q60.709373 234.63188 61.803123 234.63188Q62.88125 234.63188 63.63125 233.585Q64.38125 232.5225 64.38125 229.35063Q64.38125 226.17876 63.63125 225.13188Q62.88125 224.085 61.7875 224.085Q60.69375 224.085 60.0375 225.00688Q59.225 226.17876 59.225 229.35063Z" fill-rule="nonzero"/><path fill="#000000" d="M26.428125 154.52167L26.428125 152.94354L31.2875 152.94354L31.2875 154.52167L26.428125 154.52167ZM32.6 152.0373Q32.6 149.75604 33.06875 148.36542Q33.5375 146.9748 34.459373 146.2248Q35.396873 145.45917 36.803123 145.45917Q37.834373 145.45917 38.615623 145.88104Q39.396873 146.2873 39.896873 147.08417Q40.4125 147.86542 40.709373 149.00604Q41.00625 150.13104 41.00625 152.0373Q41.00625 154.30292 40.5375 155.70917Q40.06875 157.0998 39.13125 157.86542Q38.209373 158.61542 36.803123 158.61542Q34.928123 158.61542 33.865623 157.2873Q32.6 155.67792 32.6 152.0373ZM34.225 152.0373Q34.225 155.20917 34.959373 156.27167Q35.709373 157.31854 36.803123 157.31854Q37.88125 157.31854 38.63125 156.27167Q39.38125 155.20917 39.38125 152.0373Q39.38125 148.86542 38.63125 147.81854Q37.88125 146.77167 36.7875 146.77167Q35.69375 146.77167 35.0375 147.69354Q34.225 148.86542 34.225 152.0373ZM43.490623 158.39667L43.490623 156.5998L45.2875 156.5998L45.2875 158.39667L43.490623 158.39667ZM55.9125 156.88104L55.9125 158.39667L47.396873 158.39667Q47.38125 157.81854 47.584373 157.30292Q47.9125 156.42792 48.615623 155.58417Q49.334373 154.74042 50.69375 153.63104Q52.7875 151.9123 53.521873 150.9123Q54.271873 149.89667 54.271873 149.00604Q54.271873 148.05292 53.6 147.4123Q52.928123 146.77167 51.85 146.77167Q50.69375 146.77167 50.00625 147.45917Q49.334373 148.14667 49.31875 149.3498L47.69375 149.17792Q47.865623 147.36542 48.94375 146.4123Q50.0375 145.45917 51.88125 145.45917Q53.725 145.45917 54.803123 146.49042Q55.896873 147.52167 55.896873 149.0373Q55.896873 149.80292 55.56875 150.55292Q55.25625 151.30292 54.521873 152.13104Q53.7875 152.95917 52.084373 154.39667Q50.6625 155.5998 50.25625 156.02167Q49.85 156.44354 49.6 156.88104L55.9125 156.88104ZM57.6 155.02167L59.25625 154.88104Q59.44375 156.0998 60.115623 156.70917Q60.7875 157.31854 61.740623 157.31854Q62.88125 157.31854 63.6625 156.45917Q64.45937 155.5998 64.45937 154.1623Q64.45937 152.81854 63.69375 152.0373Q62.94375 151.25604 61.709373 151.25604Q60.94375 151.25604 60.31875 151.5998Q59.709373 151.94354 59.365623 152.50604L57.88125 152.30292L59.13125 145.69354L65.5375 145.69354L65.5375 147.19354L60.396873 147.19354L59.69375 150.6623Q60.865623 149.8498 62.13125 149.8498Q63.81875 149.8498 64.975 151.02167Q66.14687 152.19354 66.14687 154.02167Q66.14687 155.77167 65.11562 157.05292Q63.88125 158.61542 61.740623 158.61542Q59.975 158.61542 58.865623 157.63104Q57.75625 156.64667 57.6 155.02167Z" fill-rule="nonzero"/><path fill="#000000" d="M32.6 74.72396Q32.6 72.44271 33.06875 71.052086Q33.5375 69.66146 34.459373 68.91146Q35.396873 68.145836 36.803123 68.145836Q37.834373 68.145836 38.615623 68.56771Q39.396873 68.97396 39.896873 69.770836Q40.4125 70.552086 40.709373 71.69271Q41.00625 72.81771 41.00625 74.72396Q41.00625 76.989586 40.5375 78.395836Q40.06875 79.78646 39.13125 80.552086Q38.209373 81.302086 36.803123 81.302086Q34.928123 81.302086 33.865623 79.97396Q32.6 78.364586 32.6 74.72396ZM34.225 74.72396Q34.225 77.895836 34.959373 78.958336Q35.709373 80.00521 36.803123 80.00521Q37.88125 80.00521 38.63125 78.958336Q39.38125 77.895836 39.38125 74.72396Q39.38125 71.552086 38.63125 70.50521Q37.88125 69.458336 36.7875 69.458336Q35.69375 69.458336 35.0375 70.38021Q34.225 71.552086 34.225 74.72396ZM43.490623 81.083336L43.490623 79.28646L45.2875 79.28646L45.2875 81.083336L43.490623 81.083336ZM47.6 74.72396Q47.6 72.44271 48.06875 71.052086Q48.5375 69.66146 49.459373 68.91146Q50.396873 68.145836 51.803123 68.145836Q52.834373 68.145836 53.615623 68.56771Q54.396873 68.97396 54.896873 69.770836Q55.4125 70.552086 55.709373 71.69271Q56.00625 72.81771 56.00625 74.72396Q56.00625 76.989586 55.5375 78.395836Q55.06875 79.78646 54.13125 80.552086Q53.209373 81.302086 51.803123 81.302086Q49.928123 81.302086 48.865623 79.97396Q47.6 78.364586 47.6 74.72396ZM49.225 74.72396Q49.225 77.895836 49.959373 78.958336Q50.709373 80.00521 51.803123 80.00521Q52.88125 80.00521 53.63125 78.958336Q54.38125 77.895836 54.38125 74.72396Q54.38125 71.552086 53.63125 70.50521Q52.88125 69.458336 51.7875 69.458336Q50.69375 69.458336 50.0375 70.38021Q49.225 71.552086 49.225 74.72396ZM57.6 74.72396Q57.6 72.44271 58.06875 71.052086Q58.5375 69.66146 59.459373 68.91146Q60.396873 68.145836 61.803123 68.145836Q62.834373 68.145836 63.615623 68.56771Q64.39687 68.97396 64.89687 69.770836Q65.4125 70.552086 65.70937 71.69271Q66.00625 72.81771 66.00625 74.72396Q66.00625 76.989586 65.5375 78.395836Q65.06875 79.78646 64.13125 80.552086Q63.209373 81.302086 61.803123 81.302086Q59.928123 81.302086 58.865623 79.97396Q57.6 78.364586 57.6 74.72396ZM59.225 74.72396Q59.225 77.895836 59.959373 78.958336Q60.709373 80.00521 61.803123 80.00521Q62.88125 80.00521 63.63125 78.958336Q64.38125 77.895836 64.38125 74.72396Q64.38125 71.552086 63.63125 70.50521Q62.88125 69.458336 61.7875 69.458336Q60.69375 69.458336 60.0375 70.38021Q59.225 71.552086 59.225 74.72396Z" fill-rule="nonzero"/><path fill="#000000" d="M139.04202 482.47812Q139.04202 479.88437 140.49515 478.63437Q141.69827 477.60312 143.41702 477.60312Q145.35452 477.60312 146.57327 478.86874Q147.79202 480.13437 147.79202 482.35312Q147.79202 484.15 147.24515 485.18124Q146.7139 486.2125 145.68265 486.79062Q144.6514 487.36874 143.41702 487.36874Q141.4639 487.36874 140.24515 486.11874Q139.04202 484.85312 139.04202 482.47812ZM140.66702 482.47812Q140.66702 484.275 141.44827 485.16562Q142.22952 486.05624 143.41702 486.05624Q144.60452 486.05624 145.38577 485.16562Q146.16702 484.25937 146.16702 482.43124Q146.16702 480.69687 145.37015 479.80624Q144.5889 478.91562 143.41702 478.91562Q142.22952 478.91562 141.44827 479.80624Q140.66702 480.69687 140.66702 482.47812ZM149.63577 490.72812L149.63577 477.82187L151.07327 477.82187L151.07327 479.025Q151.5889 478.32187 152.22952 477.9625Q152.87015 477.60312 153.7764 477.60312Q154.97952 477.60312 155.88577 478.22812Q156.80765 478.8375 157.2764 479.9625Q157.74515 481.07187 157.74515 482.41562Q157.74515 483.8375 157.22952 484.99374Q156.7139 486.13437 155.72952 486.75937Q154.74515 487.36874 153.66702 487.36874Q152.88577 487.36874 152.24515 487.04062Q151.62015 486.69687 151.2139 486.18124L151.2139 490.72812L149.63577 490.72812ZM151.07327 482.54062Q151.07327 484.3375 151.79202 485.19687Q152.5264 486.05624 153.55765 486.05624Q154.62015 486.05624 155.37015 485.16562Q156.12015 484.275 156.12015 482.4Q156.12015 480.61874 155.38577 479.72812Q154.6514 478.8375 153.63577 478.8375Q152.62015 478.8375 151.8389 479.79062Q151.07327 480.72812 151.07327 482.54062ZM163.0889 485.72812L163.32327 487.13437Q162.6514 487.275 162.12015 487.275Q161.26077 487.275 160.7764 487.00937Q160.30765 486.72812 160.12015 486.29062Q159.93265 485.8375 159.93265 484.41562L159.93265 479.04062L158.76077 479.04062L158.76077 477.82187L159.93265 477.82187L159.93265 475.50937L161.49515 474.55624L161.49515 477.82187L163.0889 477.82187L163.0889 479.04062L161.49515 479.04062L161.49515 484.50937Q161.49515 485.18124 161.57327 485.38437Q161.66702 485.57187 161.85452 485.68124Q162.04202 485.79062 162.4014 485.79062Q162.6514 485.79062 163.0889 485.72812ZM166.0889 487.15L164.62015 487.15L164.62015 474.25937L166.2139 474.25937L166.2139 478.86874Q167.2139 477.60312 168.76077 477.60312Q169.62015 477.60312 170.38577 477.9625Q171.16702 478.30624 171.6514 478.93124Q172.1514 479.55624 172.43265 480.44687Q172.7139 481.3375 172.7139 482.3375Q172.7139 484.74374 171.5264 486.05624Q170.35452 487.36874 168.68265 487.36874Q167.04202 487.36874 166.0889 485.97812L166.0889 487.15ZM166.07327 482.41562Q166.07327 484.0875 166.5264 484.8375Q167.2764 486.05624 168.55765 486.05624Q169.5889 486.05624 170.3389 485.16562Q171.10452 484.25937 171.10452 482.47812Q171.10452 480.65 170.37015 479.775Q169.6514 478.9 168.62015 478.9Q167.5889 478.9 166.82327 479.80624Q166.07327 480.7125 166.07327 482.41562ZM176.63577 480.16562Q175.6514 479.80624 175.16702 479.13437Q174.69827 478.4625 174.69827 477.54062Q174.69827 476.13437 175.69827 475.18124Q176.7139 474.2125 178.4014 474.2125Q180.0889 474.2125 181.10452 475.19687Q182.13577 476.16562 182.13577 477.57187Q182.13577 478.47812 181.66702 479.15Q181.19827 479.80624 180.24515 480.16562Q181.43265 480.55624 182.04202 481.41562Q182.66702 482.275 182.66702 483.4625Q182.66702 485.11874 181.49515 486.24374Q180.32327 487.36874 178.41702 487.36874Q176.51077 487.36874 175.3389 486.24374Q174.18265 485.10312 174.18265 483.41562Q174.18265 482.16562 174.80765 481.32187Q175.44827 480.4625 176.63577 480.16562ZM176.30765 477.47812Q176.30765 478.4 176.9014 478.97812Q177.49515 479.55624 178.43265 479.55624Q179.3389 479.55624 179.91702 478.97812Q180.51077 478.4 180.51077 477.57187Q180.51077 476.69687 179.9014 476.10312Q179.30765 475.50937 178.41702 475.50937Q177.51077 475.50937 176.9014 476.0875Q176.30765 476.66562 176.30765 477.47812ZM175.80765 483.43124Q175.80765 484.10312 176.12015 484.74374Q176.44827 485.36874 177.07327 485.72812Q177.7139 486.07187 178.44827 486.07187Q179.57327 486.07187 180.30765 485.3375Q181.05765 484.60312 181.05765 483.47812Q181.05765 482.3375 180.29202 481.60312Q179.5264 480.85312 178.38577 480.85312Q177.2764 480.85312 176.54202 481.5875Q175.80765 482.32187 175.80765 483.43124ZM192.4014 477.41562L190.8389 477.54062Q190.62015 476.61874 190.22952 476.19687Q189.5889 475.50937 188.6514 475.50937Q187.9014 475.50937 187.32327 475.93124Q186.57327 476.47812 186.13577 477.525Q185.7139 478.57187 185.69827 480.50937Q186.2764 479.63437 187.0889 479.2125Q187.91702 478.79062 188.82327 478.79062Q190.41702 478.79062 191.5264 479.9625Q192.63577 481.11874 192.63577 482.9625Q192.63577 484.18124 192.10452 485.22812Q191.5889 486.25937 190.66702 486.82187Q189.76077 487.36874 188.60452 487.36874Q186.62015 487.36874 185.37015 485.91562Q184.12015 484.4625 184.12015 481.11874Q184.12015 477.38437 185.51077 475.68124Q186.7139 474.2125 188.74515 474.2125Q190.2764 474.2125 191.24515 475.07187Q192.2139 475.91562 192.4014 477.41562ZM185.94827 482.97812Q185.94827 483.79062 186.29202 484.54062Q186.63577 485.29062 187.26077 485.68124Q187.88577 486.07187 188.57327 486.07187Q189.57327 486.07187 190.29202 485.25937Q191.01077 484.44687 191.01077 483.05624Q191.01077 481.72812 190.29202 480.9625Q189.5889 480.18124 188.51077 480.18124Q187.43265 480.18124 186.68265 480.9625Q185.94827 481.72812 185.94827 482.97812ZM196.0889 487.15L194.62015 487.15L194.62015 474.25937L196.2139 474.25937L196.2139 478.86874Q197.2139 477.60312 198.76077 477.60312Q199.62015 477.60312 200.38577 477.9625Q201.16702 478.30624 201.6514 478.93124Q202.1514 479.55624 202.43265 480.44687Q202.7139 481.3375 202.7139 482.3375Q202.7139 484.74374 201.5264 486.05624Q200.35452 487.36874 198.68265 487.36874Q197.04202 487.36874 196.0889 485.97812L196.0889 487.15ZM196.07327 482.41562Q196.07327 484.0875 196.5264 484.8375Q197.2764 486.05624 198.55765 486.05624Q199.5889 486.05624 200.3389 485.16562Q201.10452 484.25937 201.10452 482.47812Q201.10452 480.65 200.37015 479.775Q199.6514 478.9 198.62015 478.9Q197.5889 478.9 196.82327 479.80624Q196.07327 480.7125 196.07327 482.41562ZM204.0264 483.275L204.0264 481.69687L208.88577 481.69687L208.88577 483.275L204.0264 483.275ZM213.22952 487.15L209.68265 477.82187L211.35452 477.82187L213.35452 483.4Q213.68265 484.30624 213.94827 485.29062Q214.16702 484.54062 214.54202 483.50937L216.60452 477.82187L218.24515 477.82187L214.69827 487.15L213.22952 487.15ZM225.69827 487.15L225.69827 485.97812Q224.80765 487.36874 223.07327 487.36874Q221.9639 487.36874 221.0264 486.75937Q220.0889 486.13437 219.57327 485.04062Q219.05765 483.93124 219.05765 482.49374Q219.05765 481.0875 219.5264 479.9625Q219.99515 478.82187 220.91702 478.2125Q221.85452 477.60312 223.01077 477.60312Q223.85452 477.60312 224.51077 477.9625Q225.16702 478.32187 225.5889 478.88437L225.5889 474.25937L227.1514 474.25937L227.1514 487.15L225.69827 487.15ZM220.68265 482.49374Q220.68265 484.29062 221.43265 485.18124Q222.19827 486.05624 223.22952 486.05624Q224.26077 486.05624 224.97952 485.2125Q225.7139 484.36874 225.7139 482.61874Q225.7139 480.7125 224.97952 479.82187Q224.24515 478.91562 223.16702 478.91562Q222.10452 478.91562 221.38577 479.775Q220.68265 480.63437 220.68265 482.49374ZM231.35452 487.15L228.49515 477.82187L230.13577 477.82187L231.62015 483.19687L232.18265 485.2125Q232.2139 485.05624 232.6514 483.275L234.1514 477.82187L235.7764 477.82187L237.16702 483.22812L237.63577 485.00937L238.16702 483.2125L239.7764 477.82187L241.30765 477.82187L238.38577 487.15L236.74515 487.15L235.26077 481.55624L234.9014 479.9625L233.01077 487.15L231.35452 487.15Z" fill-rule="nonzero"/><path fill="#000000" d="M313.15463 487.15L313.15463 477.82187L314.5765 477.82187L314.5765 479.22812Q315.12338 478.24374 315.5765 477.93124Q316.04526 477.60312 316.59213 477.60312Q317.40463 477.60312 318.21713 478.11874L317.68588 479.5875Q317.09213 479.24374 316.514 479.24374Q315.99838 479.24374 315.5765 479.55624Q315.17026 479.86874 314.99838 480.41562Q314.73276 481.25937 314.73276 482.25937L314.73276 487.15L313.15463 487.15ZM325.56088 484.15L327.2015 484.35312Q326.81088 485.775 325.764 486.57187Q324.71713 487.36874 323.09213 487.36874Q321.04526 487.36874 319.84213 486.10312Q318.639 484.8375 318.639 482.55624Q318.639 480.2125 319.84213 478.91562Q321.06088 477.60312 322.99838 477.60312Q324.87338 477.60312 326.06088 478.88437Q327.24838 480.15 327.24838 482.4625Q327.24838 482.60312 327.23276 482.88437L320.27963 482.88437Q320.35776 484.43124 321.139 485.24374Q321.93588 486.05624 323.09213 486.05624Q323.96713 486.05624 324.5765 485.60312Q325.2015 485.15 325.56088 484.15ZM320.35776 481.5875L325.5765 481.5875Q325.46713 480.41562 324.98276 479.82187Q324.21713 478.9 323.014 478.9Q321.93588 478.9 321.18588 479.63437Q320.4515 480.36874 320.35776 481.5875ZM331.764 487.15L328.21713 477.82187L329.889 477.82187L331.889 483.4Q332.21713 484.30624 332.48276 485.29062Q332.7015 484.54062 333.0765 483.50937L335.139 477.82187L336.77963 477.82187L333.23276 487.15L331.764 487.15ZM337.56088 483.275L337.56088 481.69687L342.42026 481.69687L342.42026 483.275L337.56088 483.275ZM346.764 487.15L343.21713 477.82187L344.889 477.82187L346.889 483.4Q347.21713 484.30624 347.48276 485.29062Q347.7015 484.54062 348.0765 483.50937L350.139 477.82187L351.77963 477.82187L348.23276 487.15L346.764 487.15ZM359.23276 487.15L359.23276 485.97812Q358.34213 487.36874 356.60776 487.36874Q355.49838 487.36874 354.56088 486.75937Q353.62338 486.13437 353.10776 485.04062Q352.59213 483.93124 352.59213 482.49374Q352.59213 481.0875 353.06088 479.9625Q353.52963 478.82187 354.4515 478.2125Q355.389 477.60312 356.54526 477.60312Q357.389 477.60312 358.04526 477.9625Q358.7015 478.32187 359.12338 478.88437L359.12338 474.25937L360.68588 474.25937L360.68588 487.15L359.23276 487.15ZM354.21713 482.49374Q354.21713 484.29062 354.96713 485.18124Q355.73276 486.05624 356.764 486.05624Q357.79526 486.05624 358.514 485.2125Q359.24838 484.36874 359.24838 482.61874Q359.24838 480.7125 358.514 479.82187Q357.77963 478.91562 356.7015 478.91562Q355.639 478.91562 354.92026 479.775Q354.21713 480.63437 354.21713 482.49374ZM364.889 487.15L362.02963 477.82187L363.67026 477.82187L365.15463 483.19687L365.71713 485.2125Q365.74838 485.05624 366.18588 483.275L367.68588 477.82187L369.31088 477.82187L370.7015 483.22812L371.17026 485.00937L371.7015 483.2125L373.31088 477.82187L374.84213 477.82187L371.92026 487.15L370.27963 487.15L368.79526 481.55624L368.43588 479.9625L366.54526 487.15L364.889 487.15ZM375.56088 483.275L375.56088 481.69687L380.42026 481.69687L380.42026 483.275L375.56088 483.275ZM388.23276 487.15L388.23276 485.97812Q387.34213 487.36874 385.60776 487.36874Q384.49838 487.36874 383.56088 486.75937Q382.62338 486.13437 382.10776 485.04062Q381.59213 483.93124 381.59213 482.49374Q381.59213 481.0875 382.06088 479.9625Q382.52963 478.82187 383.4515 478.2125Q384.389 477.60312 385.54526 477.60312Q386.389 477.60312 387.04526 477.9625Q387.7015 478.32187 388.12338 478.88437L388.12338 474.25937L389.68588 474.25937L389.68588 487.15L388.23276 487.15ZM383.21713 482.49374Q383.21713 484.29062 383.96713 485.18124Q384.73276 486.05624 385.764 486.05624Q386.79526 486.05624 387.514 485.2125Q388.24838 484.36874 388.24838 482.61874Q388.24838 480.7125 387.514 479.82187Q386.77963 478.91562 385.7015 478.91562Q384.639 478.91562 383.92026 479.775Q383.21713 480.63437 383.21713 482.49374ZM392.54526 487.15L392.54526 479.04062L391.15463 479.04062L391.15463 477.82187L392.54526 477.82187L392.54526 476.82187Q392.54526 475.88437 392.71713 475.43124Q392.93588 474.80624 393.514 474.43124Q394.09213 474.04062 395.139 474.04062Q395.79526 474.04062 396.60776 474.19687L396.37338 475.5875Q395.87338 475.49374 395.43588 475.49374Q394.71713 475.49374 394.42026 475.80624Q394.12338 476.10312 394.12338 476.94687L394.12338 477.82187L395.93588 477.82187L395.93588 479.04062L394.12338 479.04062L394.12338 487.15L392.54526 487.15ZM405.04526 485.63437L405.04526 487.15L396.52963 487.15Q396.514 486.57187 396.71713 486.05624Q397.04526 485.18124 397.74838 484.3375Q398.46713 483.49374 399.8265 482.38437Q401.92026 480.66562 402.65463 479.66562Q403.40463 478.65 403.40463 477.75937Q403.40463 476.80624 402.73276 476.16562Q402.06088 475.525 400.98276 475.525Q399.8265 475.525 399.139 476.2125Q398.46713 476.9 398.4515 478.10312L396.8265 477.93124Q396.99838 476.11874 398.0765 475.16562Q399.17026 474.2125 401.014 474.2125Q402.85776 474.2125 403.93588 475.24374Q405.02963 476.275 405.02963 477.79062Q405.02963 478.55624 404.7015 479.30624Q404.389 480.05624 403.65463 480.88437Q402.92026 481.7125 401.21713 483.15Q399.79526 484.35312 399.389 484.775Q398.98276 485.19687 398.73276 485.63437L405.04526 485.63437Z" fill-rule="nonzero"/><path fill="#000000" d="M488.68912 487.15L488.68912 477.82187L490.111 477.82187L490.111 479.22812Q490.65787 478.24374 491.111 477.93124Q491.57974 477.60312 492.12662 477.60312Q492.93912 477.60312 493.75162 478.11874L493.22037 479.5875Q492.62662 479.24374 492.0485 479.24374Q491.53287 479.24374 491.111 479.55624Q490.70474 479.86874 490.53287 480.41562Q490.26724 481.25937 490.26724 482.25937L490.26724 487.15L488.68912 487.15ZM501.09537 484.15L502.736 484.35312Q502.34537 485.775 501.2985 486.57187Q500.25162 487.36874 498.62662 487.36874Q496.57974 487.36874 495.37662 486.10312Q494.1735 484.8375 494.1735 482.55624Q494.1735 480.2125 495.37662 478.91562Q496.59537 477.60312 498.53287 477.60312Q500.40787 477.60312 501.59537 478.88437Q502.78287 480.15 502.78287 482.4625Q502.78287 482.60312 502.76724 482.88437L495.81412 482.88437Q495.89224 484.43124 496.6735 485.24374Q497.47037 486.05624 498.62662 486.05624Q499.50162 486.05624 500.111 485.60312Q500.736 485.15 501.09537 484.15ZM495.89224 481.5875L501.111 481.5875Q501.00162 480.41562 500.51724 479.82187Q499.75162 478.9 498.5485 478.9Q497.47037 478.9 496.72037 479.63437Q495.986 480.36874 495.89224 481.5875ZM507.2985 487.15L503.75162 477.82187L505.4235 477.82187L507.4235 483.4Q507.75162 484.30624 508.01724 485.29062Q508.236 484.54062 508.611 483.50937L510.6735 477.82187L512.3141 477.82187L508.76724 487.15L507.2985 487.15ZM513.7047 490.72812L513.7047 477.82187L515.1422 477.82187L515.1422 479.025Q515.65784 478.32187 516.29846 477.9625Q516.9391 477.60312 517.84534 477.60312Q519.04846 477.60312 519.9547 478.22812Q520.8766 478.8375 521.34534 479.9625Q521.8141 481.07187 521.8141 482.41562Q521.8141 483.8375 521.29846 484.99374Q520.78284 486.13437 519.79846 486.75937Q518.8141 487.36874 517.73596 487.36874Q516.9547 487.36874 516.3141 487.04062Q515.6891 486.69687 515.28284 486.18124L515.28284 490.72812L513.7047 490.72812ZM515.1422 482.54062Q515.1422 484.3375 515.86096 485.19687Q516.59534 486.05624 517.6266 486.05624Q518.6891 486.05624 519.4391 485.16562Q520.1891 484.275 520.1891 482.4Q520.1891 480.61874 519.4547 479.72812Q518.72034 478.8375 517.7047 478.8375Q516.6891 478.8375 515.90784 479.79062Q515.1422 480.72812 515.1422 482.54062ZM525.15784 487.15L523.6891 487.15L523.6891 474.25937L525.28284 474.25937L525.28284 478.86874Q526.28284 477.60312 527.8297 477.60312Q528.6891 477.60312 529.4547 477.9625Q530.23596 478.30624 530.72034 478.93124Q531.22034 479.55624 531.5016 480.44687Q531.78284 481.3375 531.78284 482.3375Q531.78284 484.74374 530.59534 486.05624Q529.42346 487.36874 527.7516 487.36874Q526.11096 487.36874 525.15784 485.97812L525.15784 487.15ZM525.1422 482.41562Q525.1422 484.0875 525.59534 484.8375Q526.34534 486.05624 527.6266 486.05624Q528.65784 486.05624 529.40784 485.16562Q530.17346 484.25937 530.17346 482.47812Q530.17346 480.65 529.4391 479.775Q528.72034 478.9 527.6891 478.9Q526.65784 478.9 525.8922 479.80624Q525.1422 480.7125 525.1422 482.41562ZM540.09534 484.15L541.73596 484.35312Q541.34534 485.775 540.29846 486.57187Q539.2516 487.36874 537.6266 487.36874Q535.5797 487.36874 534.3766 486.10312Q533.17346 484.8375 533.17346 482.55624Q533.17346 480.2125 534.3766 478.91562Q535.59534 477.60312 537.53284 477.60312Q539.40784 477.60312 540.59534 478.88437Q541.78284 480.15 541.78284 482.4625Q541.78284 482.60312 541.7672 482.88437L534.8141 482.88437Q534.8922 484.43124 535.67346 485.24374Q536.47034 486.05624 537.6266 486.05624Q538.5016 486.05624 539.11096 485.60312Q539.73596 485.15 540.09534 484.15ZM534.8922 481.5875L540.11096 481.5875Q540.0016 480.41562 539.5172 479.82187Q538.7516 478.9 537.54846 478.9Q536.47034 478.9 535.72034 479.63437Q534.98596 480.36874 534.8922 481.5875ZM543.09534 483.275L543.09534 481.69687L547.9547 481.69687L547.9547 483.275L543.09534 483.275ZM555.7672 487.15L555.7672 485.97812Q554.8766 487.36874 553.1422 487.36874Q552.03284 487.36874 551.09534 486.75937Q550.15784 486.13437 549.6422 485.04062Q549.1266 483.93124 549.1266 482.49374Q549.1266 481.0875 549.59534 479.9625Q550.0641 478.82187 550.98596 478.2125Q551.92346 477.60312 553.0797 477.60312Q553.92346 477.60312 554.5797 477.9625Q555.23596 478.32187 555.65784 478.88437L555.65784 474.25937L557.22034 474.25937L557.22034 487.15L555.7672 487.15ZM550.7516 482.49374Q550.7516 484.29062 551.5016 485.18124Q552.2672 486.05624 553.29846 486.05624Q554.3297 486.05624 555.04846 485.2125Q555.78284 484.36874 555.78284 482.61874Q555.78284 480.7125 555.04846 479.82187Q554.3141 478.91562 553.23596 478.91562Q552.17346 478.91562 551.4547 479.775Q550.7516 480.63437 550.7516 482.49374ZM567.5797 485.63437L567.5797 487.15L559.0641 487.15Q559.04846 486.57187 559.2516 486.05624Q559.5797 485.18124 560.28284 484.3375Q561.0016 483.49374 562.36096 482.38437Q564.4547 480.66562 565.1891 479.66562Q565.9391 478.65 565.9391 477.75937Q565.9391 476.80624 565.2672 476.16562Q564.59534 475.525 563.5172 475.525Q562.36096 475.525 561.67346 476.2125Q561.0016 476.9 560.98596 478.10312L559.36096 477.93124Q559.53284 476.11874 560.61096 475.16562Q561.7047 474.2125 563.54846 474.2125Q565.3922 474.2125 566.47034 475.24374Q567.5641 476.275 567.5641 477.79062Q567.5641 478.55624 567.23596 479.30624Q566.92346 480.05624 566.1891 480.88437Q565.4547 481.7125 563.7516 483.15Q562.3297 484.35312 561.92346 484.775Q561.5172 485.19687 561.2672 485.63437L567.5797 485.63437Z" fill-rule="nonzero"/><path fill="#000000" d="M667.2236 487.15L667.2236 477.82187L668.64545 477.82187L668.64545 479.22812Q669.1923 478.24374 669.64545 477.93124Q670.1142 477.60312 670.6611 477.60312Q671.4736 477.60312 672.2861 478.11874L671.7548 479.5875Q671.1611 479.24374 670.58295 479.24374Q670.0673 479.24374 669.64545 479.55624Q669.2392 479.86874 669.0673 480.41562Q668.8017 481.25937 668.8017 482.25937L668.8017 487.15L667.2236 487.15ZM673.2392 490.72812L673.2392 477.82187L674.6767 477.82187L674.6767 479.025Q675.1923 478.32187 675.83295 477.9625Q676.4736 477.60312 677.3798 477.60312Q678.58295 477.60312 679.4892 478.22812Q680.4111 478.8375 680.8798 479.9625Q681.3486 481.07187 681.3486 482.41562Q681.3486 483.8375 680.83295 484.99374Q680.3173 486.13437 679.33295 486.75937Q678.3486 487.36874 677.27045 487.36874Q676.4892 487.36874 675.8486 487.04062Q675.2236 486.69687 674.8173 486.18124L674.8173 490.72812L673.2392 490.72812ZM674.6767 482.54062Q674.6767 484.3375 675.39545 485.19687Q676.1298 486.05624 677.1611 486.05624Q678.2236 486.05624 678.9736 485.16562Q679.7236 484.275 679.7236 482.4Q679.7236 480.61874 678.9892 479.72812Q678.2548 478.8375 677.2392 478.8375Q676.2236 478.8375 675.4423 479.79062Q674.6767 480.72812 674.6767 482.54062ZM684.6923 487.15L683.2236 487.15L683.2236 474.25937L684.8173 474.25937L684.8173 478.86874Q685.8173 477.60312 687.3642 477.60312Q688.2236 477.60312 688.9892 477.9625Q689.77045 478.30624 690.2548 478.93124Q690.7548 479.55624 691.0361 480.44687Q691.3173 481.3375 691.3173 482.3375Q691.3173 484.74374 690.1298 486.05624Q688.95795 487.36874 687.2861 487.36874Q685.64545 487.36874 684.6923 485.97812L684.6923 487.15ZM684.6767 482.41562Q684.6767 484.0875 685.1298 484.8375Q685.8798 486.05624 687.1611 486.05624Q688.1923 486.05624 688.9423 485.16562Q689.70795 484.25937 689.70795 482.47812Q689.70795 480.65 688.9736 479.775Q688.2548 478.9 687.2236 478.9Q686.1923 478.9 685.4267 479.80624Q684.6767 480.7125 684.6767 482.41562ZM699.6298 484.15L701.27045 484.35312Q700.8798 485.775 699.83295 486.57187Q698.7861 487.36874 697.1611 487.36874Q695.1142 487.36874 693.9111 486.10312Q692.70795 484.8375 692.70795 482.55624Q692.70795 480.2125 693.9111 478.91562Q695.1298 477.60312 697.0673 477.60312Q698.9423 477.60312 700.1298 478.88437Q701.3173 480.15 701.3173 482.4625Q701.3173 482.60312 701.3017 482.88437L694.3486 482.88437Q694.4267 484.43124 695.20795 485.24374Q696.0048 486.05624 697.1611 486.05624Q698.0361 486.05624 698.64545 485.60312Q699.27045 485.15 699.6298 484.15ZM694.4267 481.5875L699.64545 481.5875Q699.5361 480.41562 699.0517 479.82187Q698.2861 478.9 697.08295 478.9Q696.0048 478.9 695.2548 479.63437Q694.52045 480.36874 694.4267 481.5875ZM702.6298 483.275L702.6298 481.69687L707.4892 481.69687L707.4892 483.275L702.6298 483.275ZM715.3017 487.15L715.3017 485.97812Q714.4111 487.36874 712.6767 487.36874Q711.5673 487.36874 710.6298 486.75937Q709.6923 486.13437 709.1767 485.04062Q708.6611 483.93124 708.6611 482.49374Q708.6611 481.0875 709.1298 479.9625Q709.5986 478.82187 710.52045 478.2125Q711.45795 477.60312 712.6142 477.60312Q713.45795 477.60312 714.1142 477.9625Q714.77045 478.32187 715.1923 478.88437L715.1923 474.25937L716.7548 474.25937L716.7548 487.15L715.3017 487.15ZM710.2861 482.49374Q710.2861 484.29062 711.0361 485.18124Q711.8017 486.05624 712.83295 486.05624Q713.8642 486.05624 714.58295 485.2125Q715.3173 484.36874 715.3173 482.61874Q715.3173 480.7125 714.58295 479.82187Q713.8486 478.91562 712.77045 478.91562Q711.70795 478.91562 710.9892 479.775Q710.2861 480.63437 710.2861 482.49374ZM727.1142 485.63437L727.1142 487.15L718.5986 487.15Q718.58295 486.57187 718.7861 486.05624Q719.1142 485.18124 719.8173 484.3375Q720.5361 483.49374 721.89545 482.38437Q723.9892 480.66562 724.7236 479.66562Q725.4736 478.65 725.4736 477.75937Q725.4736 476.80624 724.8017 476.16562Q724.1298 475.525 723.0517 475.525Q721.89545 475.525 721.20795 476.2125Q720.5361 476.9 720.52045 478.10312L718.89545 477.93124Q719.0673 476.11874 720.14545 475.16562Q721.2392 474.2125 723.08295 474.2125Q724.9267 474.2125 726.0048 475.24374Q727.0986 476.275 727.0986 477.79062Q727.0986 478.55624 726.77045 479.30624Q726.45795 480.05624 725.7236 480.88437Q724.9892 481.7125 723.2861 483.15Q721.8642 484.35312 721.45795 484.775Q721.0517 485.19687 720.8017 485.63437L727.1142 485.63437Z" fill-rule="nonzero"/><path fill="#4285f4" d="M235.0 31.35C235.0 30.797716 235.44771 30.35 236.0 30.35L246.0 30.35C246.55229 30.35 247.0 30.797716 247.0 31.35L247.0 41.35C247.0 41.902287 246.55229 42.35 246.0 42.35L236.0 42.35C235.44771 42.35 235.0 41.902287 235.0 41.35Z" fill-rule="nonzero"/><path fill="#1a1a1a" d="M259.64062 41.428123L259.875 42.834373Q259.20312 42.975 258.67188 42.975Q257.8125 42.975 257.32812 42.709373Q256.85938 42.428123 256.67188 41.990623Q256.48438 41.5375 256.48438 40.115623L256.48438 34.740623L255.3125 34.740623L255.3125 33.521873L256.48438 33.521873L256.48438 31.209373L258.04688 30.256248L258.04688 33.521873L259.64062 33.521873L259.64062 34.740623L258.04688 34.740623L258.04688 40.209373Q258.04688 40.88125 258.125 41.084373Q258.21875 41.271873 258.40625 41.38125Q258.59375 41.490623 258.95312 41.490623Q259.20312 41.490623 259.64062 41.428123ZM260.59375 38.178123Q260.59375 35.584373 262.04688 34.334373Q263.25 33.303123 264.96875 33.303123Q266.90625 33.303123 268.125 34.56875Q269.34375 35.834373 269.34375 38.053123Q269.34375 39.85 268.79688 40.88125Q268.26562 41.9125 267.23438 42.490623Q266.20312 43.06875 264.96875 43.06875Q263.01562 43.06875 261.79688 41.81875Q260.59375 40.553123 260.59375 38.178123ZM262.21875 38.178123Q262.21875 39.975 263.0 40.865623Q263.78125 41.75625 264.96875 41.75625Q266.15625 41.75625 266.9375 40.865623Q267.71875 39.959373 267.71875 38.13125Q267.71875 36.396873 266.92188 35.50625Q266.14062 34.615623 264.96875 34.615623Q263.78125 34.615623 263.0 35.50625Q262.21875 36.396873 262.21875 38.178123ZM271.1875 46.428123L271.1875 33.521873L272.625 33.521873L272.625 34.725Q273.14062 34.021873 273.78125 33.6625Q274.42188 33.303123 275.32812 33.303123Q276.53125 33.303123 277.4375 33.928123Q278.35938 34.5375 278.82812 35.6625Q279.29688 36.771873 279.29688 38.115623Q279.29688 39.5375 278.78125 40.69375Q278.26562 41.834373 277.28125 42.459373Q276.29688 43.06875 275.21875 43.06875Q274.4375 43.06875 273.79688 42.740623Q273.17188 42.396873 272.76562 41.88125L272.76562 46.428123L271.1875 46.428123ZM272.625 38.240623Q272.625 40.0375 273.34375 40.896873Q274.07812 41.75625 275.10938 41.75625Q276.17188 41.75625 276.92188 40.865623Q277.67188 39.975 277.67188 38.1Q277.67188 36.31875 276.9375 35.428123Q276.20312 34.5375 275.1875 34.5375Q274.17188 34.5375 273.39062 35.490623Q272.625 36.428123 272.625 38.240623Z" fill-rule="nonzero"/><path fill="#ea4335" d="M296.0 31.35C296.0 30.797716 296.44772 30.35 297.0 30.35L307.0 30.35C307.55228 30.35 308.0 30.797716 308.0 31.35L308.0 41.35C308.0 41.902287 307.55228 42.35 307.0 42.35L297.0 42.35C296.44772 42.35 296.0 41.902287 296.0 41.35Z" fill-rule="nonzero"/><path fill="#1a1a1a" d="M317.5625 42.85L317.5625 34.740623L316.17188 34.740623L316.17188 33.521873L317.5625 33.521873L317.5625 32.521873Q317.5625 31.584373 317.73438 31.131248Q317.95312 30.506248 318.53125 30.131248Q319.10938 29.740623 320.15625 29.740623Q320.8125 29.740623 321.625 29.896873L321.39062 31.287498Q320.89062 31.193748 320.45312 31.193748Q319.73438 31.193748 319.4375 31.506248Q319.14062 31.803123 319.14062 32.646873L319.14062 33.521873L320.95312 33.521873L320.95312 34.740623L319.14062 34.740623L319.14062 42.85L317.5625 42.85ZM328.28125 39.428123L329.82812 39.63125Q329.57812 41.240623 328.53125 42.1625Q327.48438 43.06875 325.95312 43.06875Q324.03125 43.06875 322.85938 41.81875Q321.70312 40.553123 321.70312 38.225Q321.70312 36.709373 322.20312 35.584373Q322.70312 34.44375 323.71875 33.88125Q324.75 33.303123 325.95312 33.303123Q327.48438 33.303123 328.4375 34.084373Q329.40625 34.85 329.6875 36.25625L328.14062 36.490623Q327.92188 35.553123 327.35938 35.084373Q326.8125 34.6 326.01562 34.6Q324.82812 34.6 324.07812 35.459373Q323.32812 36.31875 323.32812 38.178123Q323.32812 40.053123 324.04688 40.9125Q324.76562 41.75625 325.9375 41.75625Q326.85938 41.75625 327.48438 41.19375Q328.10938 40.615623 328.28125 39.428123ZM337.28125 39.428123L338.82812 39.63125Q338.57812 41.240623 337.53125 42.1625Q336.48438 43.06875 334.95312 43.06875Q333.03125 43.06875 331.85938 41.81875Q330.70312 40.553123 330.70312 38.225Q330.70312 36.709373 331.20312 35.584373Q331.70312 34.44375 332.71875 33.88125Q333.75 33.303123 334.95312 33.303123Q336.48438 33.303123 337.4375 34.084373Q338.40625 34.85 338.6875 36.25625L337.14062 36.490623Q336.92188 35.553123 336.35938 35.084373Q335.8125 34.6 335.01562 34.6Q333.82812 34.6 333.07812 35.459373Q332.32812 36.31875 332.32812 38.178123Q332.32812 40.053123 333.04688 40.9125Q333.76562 41.75625 334.9375 41.75625Q335.85938 41.75625 336.48438 41.19375Q337.10938 40.615623 337.28125 39.428123ZM345.1875 42.85L345.1875 29.959373L346.76562 29.959373L346.76562 34.584373Q347.875 33.303123 349.5625 33.303123Q350.59375 33.303123 351.35938 33.709373Q352.125 34.115623 352.45312 34.85Q352.79688 35.56875 352.79688 36.928123L352.79688 42.85L351.20312 42.85L351.20312 36.928123Q351.20312 35.740623 350.6875 35.209373Q350.17188 34.6625 349.23438 34.6625Q348.53125 34.6625 347.90625 35.0375Q347.29688 35.396873 347.03125 36.021873Q346.76562 36.646873 346.76562 37.740623L346.76562 42.85L345.1875 42.85ZM354.59375 38.178123Q354.59375 35.584373 356.04688 34.334373Q357.25 33.303123 358.96875 33.303123Q360.90625 33.303123 362.125 34.56875Q363.34375 35.834373 363.34375 38.053123Q363.34375 39.85 362.79688 40.88125Q362.26562 41.9125 361.23438 42.490623Q360.20312 43.06875 358.96875 43.06875Q357.01562 43.06875 355.79688 41.81875Q354.59375 40.553123 354.59375 38.178123ZM356.21875 38.178123Q356.21875 39.975 357.0 40.865623Q357.78125 41.75625 358.96875 41.75625Q360.15625 41.75625 360.9375 40.865623Q361.71875 39.959373 361.71875 38.13125Q361.71875 36.396873 360.92188 35.50625Q360.14062 34.615623 358.96875 34.615623Q357.78125 34.615623 357.0 35.50625Q356.21875 36.396873 356.21875 38.178123ZM365.15625 42.85L365.15625 29.959373L366.73438 29.959373L366.73438 42.85L365.15625 42.85ZM369.15625 42.85L369.15625 29.959373L370.73438 29.959373L370.73438 42.85L369.15625 42.85ZM372.59375 38.178123Q372.59375 35.584373 374.04688 34.334373Q375.25 33.303123 376.96875 33.303123Q378.90625 33.303123 380.125 34.56875Q381.34375 35.834373 381.34375 38.053123Q381.34375 39.85 380.79688 40.88125Q380.26562 41.9125 379.23438 42.490623Q378.20312 43.06875 376.96875 43.06875Q375.01562 43.06875 373.79688 41.81875Q372.59375 40.553123 372.59375 38.178123ZM374.21875 38.178123Q374.21875 39.975 375.0 40.865623Q375.78125 41.75625 376.96875 41.75625Q378.15625 41.75625 378.9375 40.865623Q379.71875 39.959373 379.71875 38.13125Q379.71875 36.396873 378.92188 35.50625Q378.14062 34.615623 376.96875 34.615623Q375.78125 34.615623 375.0 35.50625Q374.21875 36.396873 374.21875 38.178123ZM384.90625 42.85L382.04688 33.521873L383.6875 33.521873L385.17188 38.896873L385.73438 40.9125Q385.76562 40.75625 386.20312 38.975L387.70312 33.521873L389.32812 33.521873L390.71875 38.928123L391.1875 40.709373L391.71875 38.9125L393.32812 33.521873L394.85938 33.521873L391.9375 42.85L390.29688 42.85L388.8125 37.25625L388.45312 35.6625L386.5625 42.85L384.90625 42.85Z" fill-rule="nonzero"/><path fill="#fbbc04" d="M411.0 31.35C411.0 30.797716 411.44772 30.35 412.0 30.35L422.0 30.35C422.55228 30.35 423.0 30.797716 423.0 31.35L423.0 41.35C423.0 41.902287 422.55228 42.35 422.0 42.35L412.0 42.35C411.44772 42.35 411.0 41.902287 411.0 41.35Z" fill-rule="nonzero"/><path fill="#1a1a1a" d="M432.1875 42.85L432.1875 29.959373L433.76562 29.959373L433.76562 34.584373Q434.875 33.303123 436.5625 33.303123Q437.59375 33.303123 438.35938 33.709373Q439.125 34.115623 439.45312 34.85Q439.79688 35.56875 439.79688 36.928123L439.79688 42.85L438.20312 42.85L438.20312 36.928123Q438.20312 35.740623 437.6875 35.209373Q437.17188 34.6625 436.23438 34.6625Q435.53125 34.6625 434.90625 35.0375Q434.29688 35.396873 434.03125 36.021873Q433.76562 36.646873 433.76562 37.740623L433.76562 42.85L432.1875 42.85ZM448.28125 39.428123L449.82812 39.63125Q449.57812 41.240623 448.53125 42.1625Q447.48438 43.06875 445.95312 43.06875Q444.03125 43.06875 442.85938 41.81875Q441.70312 40.553123 441.70312 38.225Q441.70312 36.709373 442.20312 35.584373Q442.70312 34.44375 443.71875 33.88125Q444.75 33.303123 445.95312 33.303123Q447.48438 33.303123 448.4375 34.084373Q449.40625 34.85 449.6875 36.25625L448.14062 36.490623Q447.92188 35.553123 447.35938 35.084373Q446.8125 34.6 446.01562 34.6Q444.82812 34.6 444.07812 35.459373Q443.32812 36.31875 443.32812 38.178123Q443.32812 40.053123 444.04688 40.9125Q444.76562 41.75625 445.9375 41.75625Q446.85938 41.75625 447.48438 41.19375Q448.10938 40.615623 448.28125 39.428123ZM451.1875 46.428123L451.1875 33.521873L452.625 33.521873L452.625 34.725Q453.14062 34.021873 453.78125 33.6625Q454.42188 33.303123 455.32812 33.303123Q456.53125 33.303123 457.4375 33.928123Q458.35938 34.5375 458.82812 35.6625Q459.29688 36.771873 459.29688 38.115623Q459.29688 39.5375 458.78125 40.69375Q458.26562 41.834373 457.28125 42.459373Q456.29688 43.06875 455.21875 43.06875Q454.4375 43.06875 453.79688 42.740623Q453.17188 42.396873 452.76562 41.88125L452.76562 46.428123L451.1875 46.428123ZM452.625 38.240623Q452.625 40.0375 453.34375 40.896873Q454.07812 41.75625 455.10938 41.75625Q456.17188 41.75625 456.92188 40.865623Q457.67188 39.975 457.67188 38.1Q457.67188 36.31875 456.9375 35.428123Q456.20312 34.5375 455.1875 34.5375Q454.17188 34.5375 453.39062 35.490623Q452.625 36.428123 452.625 38.240623ZM466.1875 42.85L466.1875 29.959373L467.76562 29.959373L467.76562 34.584373Q468.875 33.303123 470.5625 33.303123Q471.59375 33.303123 472.35938 33.709373Q473.125 34.115623 473.45312 34.85Q473.79688 35.56875 473.79688 36.928123L473.79688 42.85L472.20312 42.85L472.20312 36.928123Q472.20312 35.740623 471.6875 35.209373Q471.17188 34.6625 470.23438 34.6625Q469.53125 34.6625 468.90625 35.0375Q468.29688 35.396873 468.03125 36.021873Q467.76562 36.646873 467.76562 37.740623L467.76562 42.85L466.1875 42.85ZM475.59375 38.178123Q475.59375 35.584373 477.04688 34.334373Q478.25 33.303123 479.96875 33.303123Q481.90625 33.303123 483.125 34.56875Q484.34375 35.834373 484.34375 38.053123Q484.34375 39.85 483.79688 40.88125Q483.26562 41.9125 482.23438 42.490623Q481.20312 43.06875 479.96875 43.06875Q478.01562 43.06875 476.79688 41.81875Q475.59375 40.553123 475.59375 38.178123ZM477.21875 38.178123Q477.21875 39.975 478.0 40.865623Q478.78125 41.75625 479.96875 41.75625Q481.15625 41.75625 481.9375 40.865623Q482.71875 39.959373 482.71875 38.13125Q482.71875 36.396873 481.92188 35.50625Q481.14062 34.615623 479.96875 34.615623Q478.78125 34.615623 478.0 35.50625Q477.21875 36.396873 477.21875 38.178123ZM486.15625 42.85L486.15625 29.959373L487.73438 29.959373L487.73438 42.85L486.15625 42.85ZM490.15625 42.85L490.15625 29.959373L491.73438 29.959373L491.73438 42.85L490.15625 42.85ZM493.59375 38.178123Q493.59375 35.584373 495.04688 34.334373Q496.25 33.303123 497.96875 33.303123Q499.90625 33.303123 501.125 34.56875Q502.34375 35.834373 502.34375 38.053123Q502.34375 39.85 501.79688 40.88125Q501.26562 41.9125 500.23438 42.490623Q499.20312 43.06875 497.96875 43.06875Q496.01562 43.06875 494.79688 41.81875Q493.59375 40.553123 493.59375 38.178123ZM495.21875 38.178123Q495.21875 39.975 496.0 40.865623Q496.78125 41.75625 497.96875 41.75625Q499.15625 41.75625 499.9375 40.865623Q500.71875 39.959373 500.71875 38.13125Q500.71875 36.396873 499.92188 35.50625Q499.14062 34.615623 497.96875 34.615623Q496.78125 34.615623 496.0 35.50625Q495.21875 36.396873 495.21875 38.178123ZM505.90625 42.85L503.04688 33.521873L504.6875 33.521873L506.17188 38.896873L506.73438 40.9125Q506.76562 40.75625 507.20312 38.975L508.70312 33.521873L510.32812 33.521873L511.71875 38.928123L512.1875 40.709373L512.71875 38.9125L514.3281 33.521873L515.8594 33.521873L512.9375 42.85L511.29688 42.85L509.8125 37.25625L509.45312 35.6625L507.5625 42.85L505.90625 42.85Z" fill-rule="nonzero"/><path fill="#34a853" d="M532.0 31.35C532.0 30.797716 532.4477 30.35 533.0 30.35L543.0 30.35C543.5523 30.35 544.0 30.797716 544.0 31.35L544.0 41.35C544.0 41.902287 543.5523 42.35 543.0 42.35L533.0 42.35C532.4477 42.35 532.0 41.902287 532.0 41.35Z" fill-rule="nonzero"/><path fill="#1a1a1a" d="M554.6406 42.85L553.1719 42.85L553.1719 29.959373L554.7656 29.959373L554.7656 34.56875Q555.7656 33.303123 557.3125 33.303123Q558.1719 33.303123 558.9375 33.6625Q559.71875 34.00625 560.2031 34.63125Q560.7031 35.25625 560.9844 36.146873Q561.2656 37.0375 561.2656 38.0375Q561.2656 40.44375 560.0781 41.75625Q558.90625 43.06875 557.2344 43.06875Q555.59375 43.06875 554.6406 41.678123L554.6406 42.85ZM554.625 38.115623Q554.625 39.7875 555.0781 40.5375Q555.8281 41.75625 557.1094 41.75625Q558.1406 41.75625 558.8906 40.865623Q559.65625 39.959373 559.65625 38.178123Q559.65625 36.35 558.9219 35.475Q558.2031 34.6 557.1719 34.6Q556.1406 34.6 555.375 35.50625Q554.625 36.4125 554.625 38.115623ZM563.1719 42.85L563.1719 33.521873L564.59375 33.521873L564.59375 34.928123Q565.1406 33.94375 565.59375 33.63125Q566.0625 33.303123 566.6094 33.303123Q567.4219 33.303123 568.2344 33.81875L567.7031 35.2875Q567.1094 34.94375 566.53125 34.94375Q566.0156 34.94375 565.59375 35.25625Q565.1875 35.56875 565.0156 36.115623Q564.75 36.959373 564.75 37.959373L564.75 42.85L563.1719 42.85ZM569.2031 31.787498L569.2031 29.959373L570.78125 29.959373L570.78125 31.787498L569.2031 31.787498ZM569.2031 42.85L569.2031 33.521873L570.78125 33.521873L570.78125 42.85L569.2031 42.85ZM579.25 42.85L579.25 41.678123Q578.3594 43.06875 576.625 43.06875Q575.5156 43.06875 574.5781 42.459373Q573.6406 41.834373 573.125 40.740623Q572.6094 39.63125 572.6094 38.19375Q572.6094 36.7875 573.0781 35.6625Q573.5469 34.521873 574.46875 33.9125Q575.40625 33.303123 576.5625 33.303123Q577.40625 33.303123 578.0625 33.6625Q578.71875 34.021873 579.1406 34.584373L579.1406 29.959373L580.7031 29.959373L580.7031 42.85L579.25 42.85ZM574.2344 38.19375Q574.2344 39.990623 574.9844 40.88125Q575.75 41.75625 576.78125 41.75625Q577.8125 41.75625 578.53125 40.9125Q579.2656 40.06875 579.2656 38.31875Q579.2656 36.4125 578.53125 35.521873Q577.7969 34.615623 576.71875 34.615623Q575.65625 34.615623 574.9375 35.475Q574.2344 36.334373 574.2344 38.19375ZM582.8906 43.63125L584.4375 43.85Q584.53125 44.56875 584.96875 44.896873Q585.5625 45.334373 586.5781 45.334373Q587.6719 45.334373 588.2656 44.88125Q588.875 44.44375 589.0781 43.6625Q589.2031 43.178123 589.2031 41.63125Q588.15625 42.85 586.6094 42.85Q584.6875 42.85 583.625 41.459373Q582.5781 40.06875 582.5781 38.13125Q582.5781 36.7875 583.0625 35.6625Q583.5469 34.5375 584.46875 33.928123Q585.3906 33.303123 586.625 33.303123Q588.28125 33.303123 589.34375 34.646873L589.34375 33.521873L590.8125 33.521873L590.8125 41.584373Q590.8125 43.771873 590.3594 44.678123Q589.9219 45.584373 588.9531 46.1Q588.0 46.63125 586.59375 46.63125Q584.9219 46.63125 583.8906 45.88125Q582.8594 45.13125 582.8906 43.63125ZM584.2031 38.021873Q584.2031 39.85 584.9375 40.69375Q585.6719 41.5375 586.7656 41.5375Q587.8594 41.5375 588.59375 40.709373Q589.3281 39.865623 589.3281 38.06875Q589.3281 36.35 588.5625 35.490623Q587.8125 34.615623 586.7344 34.615623Q585.6875 34.615623 584.9375 35.475Q584.2031 36.334373 584.2031 38.021873ZM599.5781 39.85L601.21875 40.053123Q600.8281 41.475 599.78125 42.271873Q598.7344 43.06875 597.1094 43.06875Q595.0625 43.06875 593.8594 41.803123Q592.65625 40.5375 592.65625 38.25625Q592.65625 35.9125 593.8594 34.615623Q595.0781 33.303123 597.0156 33.303123Q598.8906 33.303123 600.0781 34.584373Q601.2656 35.85 601.2656 38.1625Q601.2656 38.303123 601.25 38.584373L594.2969 38.584373Q594.375 40.13125 595.15625 40.94375Q595.9531 41.75625 597.1094 41.75625Q597.9844 41.75625 598.59375 41.303123Q599.21875 40.85 599.5781 39.85ZM594.375 37.2875L599.59375 37.2875Q599.4844 36.115623 599.0 35.521873Q598.2344 34.6 597.03125 34.6Q595.9531 34.6 595.2031 35.334373Q594.46875 36.06875 594.375 37.2875Z" fill-rule="nonzero"/></svg>